<svg width="25" height="25" viewBox="0 0 25 25" fill="none" xmlns="http://www.w3.org/2000/svg">
<g clip-path="url(#clip0_19_338)">
<path d="M1.58202 6.13812C-0.623977 9.30813 -0.348977 13.4321 1.33602 16.8011C1.37602 16.8811 1.41602 16.9611 1.45902 17.0411C1.48502 17.0911 1.51002 17.1431 1.53902 17.1921C1.55402 17.2221 1.57202 17.2511 1.58802 17.2791C1.61702 17.3331 1.64602 17.3841 1.67602 17.4391C1.72936 17.5311 1.78269 17.6228 1.83602 17.7141C1.86602 17.7641 1.89602 17.8151 1.92802 17.8651C1.98869 17.9631 2.05069 18.0605 2.11402 18.1571C2.14002 18.1991 2.16602 18.2371 2.19402 18.2791C2.28202 18.4101 2.37202 18.5411 2.46402 18.6691L2.47202 18.6791C2.48602 18.7001 2.50302 18.7201 2.51802 18.7411C2.59802 18.8511 2.67802 18.9611 2.76402 19.0691L2.85702 19.1871C2.93169 19.2811 3.00769 19.3745 3.08502 19.4671L3.17202 19.5711C3.27502 19.6931 3.38102 19.8111 3.49202 19.9331L3.49802 19.9391L3.51002 19.9521C3.61602 20.0671 3.72402 20.1801 3.83002 20.2921L3.93302 20.3961C4.01802 20.4811 4.10302 20.5651 4.19102 20.6481C4.22602 20.6821 4.26102 20.7161 4.29702 20.7481C4.41302 20.8581 4.53102 20.9651 4.65002 21.0681C4.65202 21.0701 4.65302 21.0721 4.65602 21.0731C4.67602 21.0911 4.69802 21.1081 4.71802 21.1251C4.82469 21.2165 4.93136 21.3068 5.03802 21.3961L5.17102 21.5021C5.25902 21.5728 5.34802 21.6425 5.43802 21.7111L5.58102 21.8201C5.68002 21.8931 5.78002 21.9651 5.88102 22.0341C5.91802 22.0601 5.95302 22.0861 5.99102 22.1141L6.02102 22.1361C6.11702 22.2021 6.21502 22.2661 6.31202 22.3291C6.35402 22.3571 6.39202 22.3861 6.43802 22.4091C6.58802 22.5031 6.74002 22.5981 6.89402 22.6881L7.02002 22.7591C7.13302 22.8251 7.24602 22.8891 7.36202 22.9511C7.42402 22.9851 7.48802 23.0171 7.55102 23.0491C7.63102 23.0921 7.71102 23.1351 7.79602 23.1761L7.85302 23.2031L7.95302 23.2521C8.08102 23.3135 8.21036 23.3735 8.34102 23.4321L8.42102 23.4691C8.57036 23.5345 8.72136 23.5975 8.87402 23.6581L8.98402 23.7011C9.12502 23.7551 9.26802 23.8091 9.41102 23.8611L9.46502 23.8791C9.62502 23.9341 9.78502 23.9851 9.94502 24.0351L10.06 24.0691C10.188 24.1151 10.352 24.1631 10.521 24.2011L10.552 24.2071C21.219 26.1521 24.318 17.7971 24.318 17.7971C21.716 21.1871 17.096 22.0821 12.718 21.0861C12.552 21.0481 12.392 20.9971 12.229 20.9491L12.107 20.9121C11.947 20.8635 11.7904 20.8125 11.637 20.7591L11.572 20.7361C11.433 20.6871 11.294 20.6351 11.158 20.5821L11.042 20.5361C10.892 20.4771 10.742 20.4141 10.594 20.3501L10.504 20.3101C10.377 20.2521 10.251 20.1951 10.126 20.1351L10.017 20.0821C9.91902 20.0341 9.82202 19.9841 9.72502 19.9331C9.66002 19.8991 9.59402 19.8671 9.53002 19.8311C9.41202 19.7681 9.29602 19.7011 9.18002 19.6341L9.06202 19.5681C8.90802 19.4781 8.75602 19.3831 8.60602 19.2891C8.56402 19.2631 8.52602 19.2351 8.48302 19.2091C8.37402 19.1391 8.26502 19.0671 8.15802 18.9931C8.12302 18.9701 8.08802 18.9431 8.05302 18.9191C7.94969 18.8465 7.84736 18.7725 7.74602 18.6971C7.70002 18.6631 7.65502 18.6281 7.61002 18.5941C7.51702 18.5231 7.42402 18.4521 7.33302 18.3771L7.21002 18.2781C7.09402 18.1821 6.97902 18.0871 6.86502 17.9881L6.82702 17.9561C6.70502 17.8481 6.58702 17.7381 6.46502 17.6261L6.36302 17.5281C6.27436 17.4441 6.18769 17.3591 6.10302 17.2731L6.00102 17.1711C5.89436 17.0598 5.78769 16.9471 5.68102 16.8331L5.66502 16.8161C5.55502 16.6951 5.44702 16.5721 5.34102 16.4471L5.25802 16.3451C5.17802 16.2501 5.09802 16.1541 5.02502 16.0571C4.99602 16.0231 4.96702 15.9871 4.93902 15.9511C4.84702 15.8321 4.75702 15.7111 4.66902 15.5931C2.23902 12.2791 1.36602 7.70712 3.30902 3.95312L1.58202 6.13812Z" fill="#7AB1E3"/>
<path d="M8.42905 3.4661C7.67505 4.6321 7.22705 6.0581 7.22705 7.5871C7.22705 8.9341 7.57405 10.2001 8.18505 11.3011L8.16505 11.2621C8.40005 11.7191 8.63405 12.1051 8.89205 12.4721L8.87005 12.4401C9.11405 12.8271 9.38505 13.1631 9.69005 13.4641L9.69105 13.4651C9.80605 13.5911 9.92605 13.7151 10.0491 13.8361C10.0801 13.8681 10.1111 13.8981 10.1431 13.9301C10.2621 14.0451 10.3831 14.1591 10.5091 14.2691C10.5141 14.2731 10.5191 14.2791 10.5241 14.2821C10.6621 14.4041 10.8061 14.5221 10.9511 14.6351L11.0481 14.7111C11.1941 14.8231 11.3421 14.9331 11.4941 15.0371L11.5071 15.0471C11.5741 15.0931 11.6431 15.1371 11.7111 15.1811C11.7441 15.2031 11.7751 15.2251 11.8081 15.2451C11.9171 15.3151 12.0271 15.3831 12.1391 15.4481L12.1851 15.4751C12.2821 15.5311 12.3791 15.5851 12.4781 15.6351C12.5121 15.6541 12.5471 15.6711 12.5821 15.6891C12.6501 15.7241 12.7181 15.7601 12.7871 15.7951L12.8171 15.8091C12.9581 15.8791 13.0991 15.9451 13.2441 16.0081C13.2751 16.0221 13.3061 16.0341 13.3381 16.0471C13.4531 16.0961 13.5711 16.1441 13.6881 16.1891L13.8381 16.2441C13.9441 16.2831 14.0521 16.3201 14.1581 16.3561L14.3041 16.4021C14.4301 16.4501 14.5851 16.4961 14.7451 16.5321L14.7691 16.5361C23.0051 17.9011 24.9071 11.5591 24.9071 11.5591C23.1931 14.0271 19.8731 15.2051 16.3321 14.2861C16.1721 14.2441 16.0201 14.2001 15.8661 14.1511C15.8191 14.1371 15.7721 14.1211 15.7261 14.1051C15.6161 14.0701 15.5081 14.0311 15.4001 13.9921L15.2531 13.9381C15.1351 13.8921 15.0181 13.8451 14.9021 13.7961C14.8701 13.7821 14.8381 13.7701 14.8081 13.7561C14.6621 13.6931 14.5191 13.6261 14.3781 13.5571C14.3051 13.5211 14.2341 13.4831 14.1631 13.4471L14.0391 13.3831C13.9471 13.3331 13.8561 13.2818 13.7661 13.2291C13.7451 13.2171 13.7231 13.2051 13.7011 13.1921C13.5897 13.1268 13.4797 13.0594 13.3711 12.9901C13.3371 12.9681 13.3051 12.9451 13.2721 12.9241C13.2001 12.8781 13.1291 12.8301 13.0581 12.7821C12.9061 12.6771 12.7591 12.5681 12.6131 12.4561L12.5131 12.3761C10.9641 11.1651 9.79505 9.5331 9.17305 7.6531L9.15305 7.5831C8.91705 6.8891 8.78005 6.0891 8.78005 5.2581C8.78005 3.9201 9.13305 2.6641 9.75205 1.5791L9.73305 1.6161L8.42905 3.4661Z" fill="#7AB1E3"/>
<path d="M14.188 1.47002C13.684 2.21702 13.384 3.13802 13.384 4.12902C13.384 4.84402 13.54 5.52202 13.82 6.13102L13.808 6.10102C14.538 7.72802 15.867 8.97702 17.507 9.58502L17.552 9.60002C17.62 9.62602 17.687 9.64802 17.757 9.67102L17.847 9.69902C17.925 9.72802 18.023 9.75702 18.123 9.78002L18.14 9.78302C22.687 10.663 23.921 7.44902 24.25 6.97702C23.169 8.53302 21.354 8.90602 19.126 8.36602C18.95 8.32302 18.756 8.26002 18.587 8.19902C18.325 8.10602 18.113 8.01602 17.908 7.91602L17.947 7.93302C17.519 7.72402 17.152 7.49702 16.811 7.23602L16.827 7.24802C14.833 5.73502 13.595 2.84802 14.896 0.499023L14.188 1.47002Z" fill="#7AB1E3"/>
</g>
<defs>
<clipPath id="clip0_19_338">
<rect width="25" height="25" fill="white"/>
</clipPath>
</defs>
</svg>
