<svg width="500" height="243" viewBox="0 0 500 243" fill="none" xmlns="http://www.w3.org/2000/svg">
<g clip-path="url(#clip0_17_320)">
<path d="M466.899 161.08C486.105 161.08 499.054 152.06 499.054 134.745V134.454C499.054 119.177 486.686 113.796 471.118 109.429C462.825 106.956 458.314 105.501 458.314 102.445V102.156C458.314 99.9716 460.497 98.3716 464.717 98.3716C470.973 98.3716 479.849 101.136 487.995 105.646L497.453 88.1889C488.433 82.3663 476.502 79.0223 465.007 79.0223C446.819 79.0223 433.434 88.3316 433.434 105.064V105.357C433.434 121.217 445.802 126.452 461.371 130.526C469.663 132.854 474.029 134.164 474.029 137.218V137.51C474.029 140.274 471.846 141.729 467.045 141.729C458.897 141.729 449.003 138.674 439.983 132.71L429.65 149.441C440.563 157.297 453.658 161.08 466.899 161.08Z" fill="white"/>
<path d="M393.859 130.818C393.859 138.676 388.184 143.768 380.183 143.768C374.508 143.768 370.435 140.567 370.435 135.182V134.892C370.435 129.07 375.089 125.143 383.092 125.143C387.164 125.143 391.095 126.015 393.859 127.179V130.818ZM412.337 89.0618C406.08 82.8031 396.477 79.4564 382.364 79.4564C368.833 79.4564 359.376 81.9311 350.501 85.5671L356.175 105.066C363.16 102.3 369.561 100.7 377.855 100.7C388.476 100.7 393.568 105.355 393.568 113.504V114.814C389.057 113.212 381.928 111.759 374.655 111.759C356.175 111.759 343.808 120.196 343.808 136.494V136.784C343.808 152.498 355.303 161.079 370.288 161.079C380.619 161.079 388.039 157.152 393.423 151.186V159.336H420.776V114.086C420.776 103.027 418.303 94.8804 412.337 89.0618" fill="white"/>
<path d="M288.087 159.915H313.257L344.685 80.6204H316.023L300.892 126.599L285.759 80.6204H256.661L288.087 159.915Z" fill="white"/>
<path d="M174.75 159.334H202.394V116.704C202.394 108.12 207.342 103.465 214.034 103.465C220.582 103.465 225.091 108.12 225.091 116.704V159.334H252.736V118.654V107.83C252.736 89.9318 242.696 78.8745 225.964 78.8745C214.762 78.8745 207.487 85.1318 202.394 91.6785V80.6211H174.75V159.334Z" fill="white"/>
<path d="M132.992 130.818C132.992 138.676 127.318 143.768 119.315 143.768C113.642 143.768 109.567 140.567 109.567 135.182V134.892C109.567 129.07 114.223 125.143 122.226 125.143C126.299 125.143 130.228 126.015 132.992 127.179V130.818ZM151.47 89.0618C145.214 82.8031 135.611 79.4564 121.498 79.4564C107.967 79.4564 98.5096 81.9311 89.6336 85.5671L95.3083 105.066C102.292 102.3 108.694 100.7 116.987 100.7C127.608 100.7 132.702 105.355 132.702 113.504V114.814C128.191 113.212 121.062 111.759 113.787 111.759C95.3083 111.759 82.9417 120.196 82.9417 136.494V136.784C82.9417 152.498 94.435 161.079 109.422 161.079C119.752 161.079 127.172 157.152 132.556 151.186V159.336H159.91V114.086C159.91 103.027 157.436 94.8804 151.47 89.0618" fill="white"/>
<path d="M41.3309 161.227C58.6456 161.227 69.1216 153.951 76.3962 143.185L57.9176 129.8C53.5536 134.891 49.3336 137.947 42.7856 137.947C33.4749 137.947 27.0722 130.236 27.0722 120.051V119.76C27.0722 110.156 33.6202 102.3 42.4949 102.3C49.1882 102.3 53.4069 105.355 57.1909 110.593L75.9589 96.6252C69.2669 86.0039 58.5002 79.0199 42.3496 79.0199C17.4696 79.0199 0.15625 97.7892 0.15625 120.051V120.341C0.15625 142.603 17.6149 161.227 41.3309 161.227Z" fill="white"/>
<path d="M0 242.008H498.848V181.45H0V242.008Z" fill="white"/>
<path d="M0 60.5054H498.848V4.42965e-05H0V60.5054Z" fill="white"/>
</g>
<defs>
<clipPath id="clip0_17_320">
<rect width="499.053" height="242.008" fill="white"/>
</clipPath>
</defs>
</svg>
